<svg width="82" height="55" viewBox="0 0 82 55" fill="none" xmlns="http://www.w3.org/2000/svg">
<ellipse cx="41" cy="27.5" rx="41" ry="27.5" fill="#2086FE"/>
<path d="M75.5073 40.8457L80.6323 54.1913L64.574 48.9339L75.5073 40.8457Z" fill="#2086FE"/>
<path d="M11.7082 20.752C11.7082 19.92 11.8802 19.18 12.2242 18.532C12.5762 17.876 13.0722 17.368 13.7122 17.008C14.3522 16.64 15.0882 16.456 15.9202 16.456C16.9762 16.456 17.8642 16.74 18.5842 17.308C19.3042 17.868 19.7682 18.632 19.9762 19.6H17.4442C17.2922 19.28 17.0802 19.036 16.8082 18.868C16.5442 18.7 16.2362 18.616 15.8842 18.616C15.3402 18.616 14.9042 18.812 14.5762 19.204C14.2562 19.588 14.0962 20.104 14.0962 20.752C14.0962 21.408 14.2562 21.932 14.5762 22.324C14.9042 22.708 15.3402 22.9 15.8842 22.9C16.2362 22.9 16.5442 22.816 16.8082 22.648C17.0802 22.48 17.2922 22.236 17.4442 21.916H19.9762C19.7682 22.884 19.3042 23.652 18.5842 24.22C17.8642 24.78 16.9762 25.06 15.9202 25.06C15.0882 25.06 14.3522 24.88 13.7122 24.52C13.0722 24.152 12.5762 23.644 12.2242 22.996C11.8802 22.34 11.7082 21.592 11.7082 20.752ZM25.146 25.084C24.354 25.084 23.626 24.9 22.962 24.532C22.298 24.156 21.77 23.64 21.378 22.984C20.994 22.32 20.802 21.572 20.802 20.74C20.802 19.908 20.994 19.164 21.378 18.508C21.77 17.844 22.298 17.328 22.962 16.96C23.626 16.592 24.354 16.408 25.146 16.408C25.946 16.408 26.674 16.592 27.33 16.96C27.994 17.328 28.518 17.844 28.902 18.508C29.286 19.164 29.478 19.908 29.478 20.74C29.478 21.572 29.286 22.32 28.902 22.984C28.518 23.64 27.994 24.156 27.33 24.532C26.666 24.9 25.938 25.084 25.146 25.084ZM25.146 22.9C25.746 22.9 26.218 22.704 26.562 22.312C26.914 21.92 27.09 21.396 27.09 20.74C27.09 20.068 26.914 19.54 26.562 19.156C26.218 18.764 25.746 18.568 25.146 18.568C24.538 18.568 24.062 18.764 23.718 19.156C23.374 19.54 23.202 20.068 23.202 20.74C23.202 21.404 23.374 21.932 23.718 22.324C24.062 22.708 24.538 22.9 25.146 22.9ZM38.3713 25H36.0193L32.8873 20.272V25H30.5353V16.54H32.8873L36.0193 21.328V16.54H38.3713V25ZM46.0831 16.54V18.412H43.8271V25H41.4751V18.412H39.2431V16.54H46.0831ZM52.3053 23.62H49.3053L48.8493 25H46.3773L49.4613 16.54H52.1733L55.2453 25H52.7613L52.3053 23.62ZM51.7173 21.82L50.8053 19.084L49.9053 21.82H51.7173ZM55.7238 20.752C55.7238 19.92 55.8958 19.18 56.2398 18.532C56.5918 17.876 57.0878 17.368 57.7278 17.008C58.3678 16.64 59.1038 16.456 59.9358 16.456C60.9918 16.456 61.8798 16.74 62.5998 17.308C63.3198 17.868 63.7838 18.632 63.9918 19.6H61.4598C61.3078 19.28 61.0958 19.036 60.8238 18.868C60.5598 18.7 60.2518 18.616 59.8998 18.616C59.3558 18.616 58.9198 18.812 58.5918 19.204C58.2718 19.588 58.1118 20.104 58.1118 20.752C58.1118 21.408 58.2718 21.932 58.5918 22.324C58.9198 22.708 59.3558 22.9 59.8998 22.9C60.2518 22.9 60.5598 22.816 60.8238 22.648C61.0958 22.48 61.3078 22.236 61.4598 21.916H63.9918C63.7838 22.884 63.3198 23.652 62.5998 24.22C61.8798 24.78 60.9918 25.06 59.9358 25.06C59.1038 25.06 58.3678 24.88 57.7278 24.52C57.0878 24.152 56.5918 23.644 56.2398 22.996C55.8958 22.34 55.7238 21.592 55.7238 20.752ZM71.4776 16.54V18.412H69.2216V25H66.8696V18.412H64.6376V16.54H71.4776ZM36.4838 34.54V39.448C36.4838 39.904 36.5878 40.256 36.7958 40.504C37.0118 40.752 37.3358 40.876 37.7678 40.876C38.1998 40.876 38.5238 40.752 38.7398 40.504C38.9638 40.248 39.0758 39.896 39.0758 39.448V34.54H41.4278V39.448C41.4278 40.224 41.2638 40.888 40.9358 41.44C40.6078 41.984 40.1598 42.396 39.5918 42.676C39.0318 42.948 38.4078 43.084 37.7198 43.084C37.0318 43.084 36.4158 42.948 35.8718 42.676C35.3358 42.396 34.9118 41.984 34.5998 41.44C34.2958 40.896 34.1438 40.232 34.1438 39.448V34.54H36.4838ZM45.9148 43.084C44.9308 43.084 44.1228 42.852 43.4908 42.388C42.8588 41.916 42.5188 41.244 42.4708 40.372H44.9788C45.0028 40.668 45.0908 40.884 45.2428 41.02C45.3948 41.156 45.5908 41.224 45.8308 41.224C46.0468 41.224 46.2228 41.172 46.3588 41.068C46.5028 40.956 46.5748 40.804 46.5748 40.612C46.5748 40.364 46.4588 40.172 46.2268 40.036C45.9948 39.9 45.6188 39.748 45.0988 39.58C44.5468 39.396 44.0988 39.22 43.7548 39.052C43.4188 38.876 43.1228 38.624 42.8668 38.296C42.6188 37.96 42.4948 37.524 42.4948 36.988C42.4948 36.444 42.6308 35.98 42.9028 35.596C43.1748 35.204 43.5508 34.908 44.0308 34.708C44.5108 34.508 45.0548 34.408 45.6628 34.408C46.6468 34.408 47.4308 34.64 48.0148 35.104C48.6068 35.56 48.9228 36.204 48.9628 37.036H46.4068C46.3988 36.78 46.3188 36.588 46.1668 36.46C46.0228 36.332 45.8348 36.268 45.6028 36.268C45.4268 36.268 45.2828 36.32 45.1708 36.424C45.0588 36.528 45.0028 36.676 45.0028 36.868C45.0028 37.028 45.0628 37.168 45.1828 37.288C45.3108 37.4 45.4668 37.5 45.6508 37.588C45.8348 37.668 46.1068 37.772 46.4668 37.9C47.0028 38.084 47.4428 38.268 47.7868 38.452C48.1388 38.628 48.4388 38.88 48.6868 39.208C48.9428 39.528 49.0708 39.936 49.0708 40.432C49.0708 40.936 48.9428 41.388 48.6868 41.788C48.4388 42.188 48.0748 42.504 47.5948 42.736C47.1228 42.968 46.5628 43.084 45.9148 43.084Z" fill="white"/>
</svg>
