<svg width="1440" height="1024" viewBox="0 0 1440 1024" fill="none" xmlns="http://www.w3.org/2000/svg">
<g clip-path="url(#clip0_693_124)">
<rect width="1440" height="1024" fill="white"/>
<path d="M75 714.5C-0.5 714.987 -44 785.594 -44 785.594V-42H1460L1443 751C1443 751 1375 801.5 1263.5 811C1152 820.5 1124.5 699.645 1013 705C901.5 710.355 846.5 797.764 759.5 807.5C672.5 817.236 628.5 756.119 537 760.5C445.5 764.881 411 823.96 337 822.5C263 821.04 150.5 714.013 75 714.5Z" stroke="#7AB7FF"/>
<path d="M75.5 734.541C0 735.038 -44 803.688 -44 803.688V-42H1460V762.896C1460 762.896 1380 826.523 1264.5 831C1149 835.477 1123.5 718.125 1012 723.597C900.5 729.069 847.5 821.1 760.5 831.049C673.5 840.998 628.5 778.318 537 782.795C445.5 787.272 412 847.465 338 845.973C264 844.48 151 734.043 75.5 734.541Z" stroke="#7AB7FF"/>
<path d="M75 737C-0.5 737.495 -44 813.927 -44 813.927V-27H1460L1457.5 765.5C1457.5 765.5 1377.5 832.048 1262 836.5C1146.5 840.952 1124.5 720.559 1013 726C901.5 731.441 846 825.607 759 835.5C672 845.393 627.5 781.548 536 786C444.5 790.452 411.5 852.484 337.5 851C263.5 849.516 150.5 736.505 75 737Z" stroke="#7AB7FF"/>
<path d="M75.5 752.03C0 752.539 -44 822.735 -44 822.735V-42H1460L1459 784C1459 784 1375 846.134 1259.5 850.712C1144 855.29 1127.5 731.405 1016 737C904.5 742.595 847.5 840.539 760.5 850.712C673.5 860.885 628.5 796.793 537 801.371C445.5 805.949 412 867.498 338 865.972C264 864.446 151 751.522 75.5 752.03Z" stroke="#7AB7FF"/>
<path d="M74 752.5C-1.5 752.996 -44 833.831 -44 833.831V-9H1460L1456 785C1456 785 1374 851.038 1258.5 855.5C1143 859.962 1124.5 728 1014.5 737C904.5 746 849 843.584 762 853.5C675 863.416 632.5 797.538 541 802C449.5 806.462 412.5 870.987 338.5 869.5C264.5 868.013 149.5 752.004 74 752.5Z" stroke="#7AB7FF"/>
<path d="M73 716.5C-2.5 716.973 -43 799.737 -43 799.737V-5H1461L1454.5 745C1454.5 745 1377.5 814.24 1262 818.5C1146.5 822.76 1126 702.793 1014.5 708C903 713.207 843.5 804.033 756.5 813.5C669.5 822.967 628 759.74 536.5 764C445 768.26 412.5 829.92 338.5 828.5C264.5 827.08 148.5 716.027 73 716.5Z" stroke="#7AB7FF"/>
<path d="M75.5 712.448C0 712.911 -44 776.69 -44 776.69V-9H1460L1447.5 745C1447.5 745 1375 797.95 1259.5 802.109C1144 806.269 1123.5 697.197 1012 702.281C900.5 707.365 847.5 792.866 760.5 802.109C673.5 811.353 628.5 753.119 537 757.279C445.5 761.438 412 817.361 338 815.975C264 814.588 151 711.986 75.5 712.448Z" stroke="#7AB7FF"/>
<path d="M75.5 706.327C0 706.785 -44 770.024 -44 770.024V-9H1460L1459.5 735.5C1459.5 735.5 1375 791.103 1259.5 795.227C1144 799.352 1123.5 691.205 1012 696.246C900.5 701.286 847.5 786.062 760.5 795.227C673.5 804.392 628.5 746.653 537 750.777C445.5 754.901 412 810.35 338 808.975C264 807.6 151 705.869 75.5 706.327Z" fill="url(#paint0_linear_693_124)"/>
</g>
<defs>
<linearGradient id="paint0_linear_693_124" x1="684.5" y1="1613" x2="914.5" y2="-502.5" gradientUnits="userSpaceOnUse">
<stop stop-color="#004DA7" stop-opacity="0.38"/>
<stop offset="1" stop-color="#479CFF" stop-opacity="0"/>
</linearGradient>
<clipPath id="clip0_693_124">
<rect width="1440" height="1024" fill="white"/>
</clipPath>
</defs>
</svg>
