<svg width="295" height="487" viewBox="0 0 295 487" fill="none" xmlns="http://www.w3.org/2000/svg">
<path d="M-5.96152 30.5774L45 1.1547L95.9615 30.5774V89.4226L45 118.845L-5.96152 89.4226V30.5774Z" stroke="#2086FE" stroke-opacity="0.4" stroke-width="2"/>
<path d="M107.359 302.577L141 283.155L174.641 302.577V341.423L141 360.845L107.359 341.423V302.577Z" stroke="#2086FE" stroke-opacity="0.3" stroke-width="2"/>
<path d="M230.679 228.577L247 219.155L263.321 228.577V247.423L247 256.845L230.679 247.423V228.577Z" stroke="#2086FE" stroke-opacity="0.4" stroke-width="2"/>
<path d="M131.359 148.732L163 130.464L194.641 148.732V185.268L163 203.536L131.359 185.268V148.732Z" stroke="#2086FE" stroke-opacity="0.35" stroke-width="6"/>
<path d="M164.5 124.402L163 123.536L161.5 124.402L126.859 144.402L125.359 145.268V147V187V188.732L126.859 189.598L161.5 209.598L163 210.464L164.5 209.598L199.141 189.598L200.641 188.732V187V147V145.268L199.141 144.402L164.5 124.402Z" stroke="#2086FE" stroke-opacity="0.45" stroke-width="6"/>
<path d="M-20.3013 373.732L20 350.464L60.3013 373.732V420.268L20 443.536L-20.3013 420.268V373.732Z" stroke="#2086FE" stroke-opacity="0.45" stroke-width="6"/>
<path d="M21.5 344.402L20 343.536L18.5 344.402L-24.8013 369.402L-26.3013 370.268V372V422V423.732L-24.8013 424.598L18.5 449.598L20 450.464L21.5 449.598L64.8013 424.598L66.3013 423.732V422V372V370.268L64.8013 369.402L21.5 344.402Z" stroke="#2086FE" stroke-opacity="0.35" stroke-width="6"/>
<path d="M164.349 25.0773L185 13.1547L205.651 25.0773V48.9226L185 60.8453L164.349 48.9226V25.0773Z" stroke="#2086FE" stroke-opacity="0.3" stroke-width="2"/>
<path d="M251.349 110.232L270 99.4641L288.651 110.232V131.768L270 142.536L251.349 131.768V110.232Z" stroke="#2086FE" stroke-opacity="0.35" stroke-width="6"/>
<path d="M24.6891 218.232L52 202.464L79.3109 218.232V249.768L52 265.536L24.6891 249.768V218.232Z" stroke="#2086FE" stroke-opacity="0.4" stroke-width="6"/>
<path d="M102.349 451.232L121 440.464L139.651 451.232V472.768L121 483.536L102.349 472.768V451.232Z" stroke="#2086FE" stroke-opacity="0.3" stroke-width="6"/>
</svg>
