<svg width="298" height="487" viewBox="0 0 298 487" fill="none" xmlns="http://www.w3.org/2000/svg">
<path d="M300.96 30.5774L249.998 1.1547L199.037 30.5774V89.4226L249.998 118.845L300.96 89.4226V30.5774Z" stroke="#2086FE" stroke-opacity="0.4" stroke-width="2"/>
<path d="M187.639 302.577L153.998 283.155L120.357 302.577V341.423L153.998 360.845L187.639 341.423V302.577Z" stroke="#2086FE" stroke-opacity="0.3" stroke-width="2"/>
<path d="M64.3205 228.577L48 219.155L31.6795 228.577V247.423L48 256.845L64.3205 247.423V228.577Z" stroke="#2086FE" stroke-opacity="0.4" stroke-width="2"/>
<path d="M163.643 148.732L132.002 130.464L100.361 148.732V185.268L132.002 203.536L163.643 185.268V148.732Z" stroke="#2086FE" stroke-opacity="0.35" stroke-width="6"/>
<path d="M130.502 124.402L132.002 123.536L133.502 124.402L168.143 144.402L169.643 145.268V147V187V188.732L168.143 189.598L133.502 209.598L132.002 210.464L130.502 209.598L95.8609 189.598L94.3609 188.732V187V147V145.268L95.8609 144.402L130.502 124.402Z" stroke="#2086FE" stroke-opacity="0.45" stroke-width="6"/>
<path d="M315.297 373.732L274.996 350.464L234.695 373.732V420.268L274.996 443.536L315.297 420.268V373.732Z" stroke="#2086FE" stroke-opacity="0.45" stroke-width="6"/>
<path d="M273.496 344.402L274.996 343.536L276.496 344.402L319.797 369.402L321.297 370.268V372V422V423.732L319.797 424.598L276.496 449.598L274.996 450.464L273.496 449.598L230.195 424.598L228.695 423.732V422V372V370.268L230.195 369.402L273.496 344.402Z" stroke="#2086FE" stroke-opacity="0.35" stroke-width="6"/>
<path d="M130.65 25.0773L109.999 13.1547L89.3484 25.0773V48.9226L109.999 60.8453L130.65 48.9226V25.0773Z" stroke="#2086FE" stroke-opacity="0.3" stroke-width="2"/>
<path d="M43.6506 110.232L25 99.4641L6.34937 110.232V131.768L25 142.536L43.6506 131.768V110.232Z" stroke="#2086FE" stroke-opacity="0.35" stroke-width="6"/>
<path d="M270.305 218.232L242.994 202.464L215.683 218.232V249.768L242.994 265.536L270.305 249.768V218.232Z" stroke="#2086FE" stroke-opacity="0.4" stroke-width="6"/>
<path d="M192.649 451.232L173.998 440.464L155.347 451.232V472.768L173.998 483.536L192.649 472.768V451.232Z" stroke="#2086FE" stroke-opacity="0.35" stroke-width="6"/>
</svg>
