<svg width="268" height="56" viewBox="0 0 268 56" fill="none" xmlns="http://www.w3.org/2000/svg">
<path d="M61.4001 40.2738V18.1807H70.7512C70.9666 18.1807 71.2538 18.1909 71.6125 18.2114C71.9816 18.2216 72.3096 18.2523 72.5969 18.3034C73.9196 18.508 75.0012 18.9427 75.8421 19.6075C76.693 20.2724 77.3186 21.1111 77.7185 22.1237C78.1183 23.1261 78.3183 24.2461 78.3183 25.4837C78.3183 26.7213 78.1133 27.8464 77.7031 28.859C77.3032 29.8614 76.6776 30.695 75.8267 31.3599C74.9858 32.0247 73.9092 32.4594 72.5969 32.664C72.3096 32.7049 71.9816 32.7356 71.6125 32.756C71.2434 32.7765 70.9562 32.7867 70.7512 32.7867H65.5835V40.2738H61.4001ZM65.5835 28.8897H70.5667C70.782 28.8897 71.0177 28.8795 71.2742 28.859C71.5306 28.8386 71.7663 28.7977 71.9816 28.7363C72.5457 28.5829 72.9814 28.3272 73.289 27.9692C73.5966 27.601 73.8069 27.197 73.9196 26.7571C74.0426 26.3071 74.1041 25.8826 74.1041 25.4837C74.1041 25.0848 74.0426 24.6654 73.9196 24.2256C73.8069 23.7756 73.5966 23.3715 73.289 23.0136C72.9814 22.6453 72.5457 22.3845 71.9816 22.2311C71.7663 22.1697 71.5306 22.1288 71.2742 22.1084C71.0177 22.0879 70.782 22.0777 70.5667 22.0777H65.5835V28.8897ZM85.69 40.7341C84.5004 40.7341 83.4906 40.509 82.6601 40.059C81.8396 39.5988 81.2144 38.9901 80.7837 38.2333C80.3631 37.4662 80.1531 36.6223 80.1531 35.7018C80.1531 34.9347 80.2708 34.234 80.5069 33.5999C80.7426 32.9657 81.1221 32.4083 81.645 31.9275C82.1779 31.4366 82.8908 31.0274 83.7829 30.7001C84.3981 30.4751 85.1309 30.2757 85.9822 30.1018C86.8332 29.9279 87.7971 29.7642 88.8737 29.6108C89.9503 29.4472 91.1346 29.2682 92.4265 29.0738L90.9193 29.9023C90.9193 28.9204 90.6832 28.1993 90.2118 27.739C89.74 27.2788 88.9506 27.0486 87.8432 27.0486C87.228 27.0486 86.5871 27.197 85.9207 27.4936C85.254 27.7902 84.7876 28.317 84.5211 29.0738L80.7376 27.8771C81.1579 26.5065 81.9472 25.3916 83.1061 24.5325C84.2647 23.6733 85.8438 23.2437 87.8432 23.2437C89.3094 23.2437 90.6117 23.4687 91.7498 23.9188C92.888 24.3688 93.7492 25.1462 94.3337 26.2508C94.6617 26.8645 94.8566 27.4782 94.9181 28.0919C94.9797 28.7056 95.0104 29.3909 95.0104 30.1478V40.2738H91.3499V36.8678L91.8729 37.5736C91.0627 38.6886 90.186 39.4964 89.2428 39.9977C88.3097 40.4886 87.1254 40.7341 85.69 40.7341ZM86.5821 37.4508C87.3511 37.4508 87.997 37.3178 88.52 37.0519C89.0529 36.7758 89.4735 36.4638 89.7812 36.116C90.0988 35.7683 90.3141 35.4767 90.4271 35.2415C90.6424 34.7915 90.7655 34.2698 90.7962 33.6766C90.837 33.0731 90.8578 32.5719 90.8578 32.173L92.0882 32.4799C90.8474 32.6844 89.8427 32.8583 89.0737 33.0015C88.3047 33.1345 87.6841 33.2572 87.2127 33.3697C86.7409 33.4822 86.3256 33.605 85.9669 33.7379C85.5567 33.9016 85.2232 34.0806 84.9671 34.2749C84.7211 34.459 84.5365 34.6636 84.4135 34.8886C84.3004 35.1137 84.2443 35.3642 84.2443 35.6404C84.2443 36.0189 84.3366 36.3462 84.5211 36.6223C84.7157 36.8883 84.9875 37.0928 85.3363 37.236C85.6847 37.3792 86.0999 37.4508 86.5821 37.4508ZM108.976 40.2738C107.828 40.4886 106.699 40.5807 105.592 40.55C104.495 40.5297 103.511 40.3402 102.639 39.9823C101.778 39.6141 101.122 39.0261 100.67 38.2179C100.26 37.4611 100.045 36.6939 100.024 35.9166C100.004 35.129 99.9936 34.2391 99.9936 33.247V19.1012H104.177V33.0015C104.177 33.6459 104.182 34.2289 104.192 34.7505C104.213 35.262 104.321 35.6711 104.515 35.9779C104.885 36.561 105.474 36.878 106.284 36.9292C107.094 36.9803 107.991 36.9394 108.976 36.8064V40.2738ZM97.1636 26.9259V23.704H108.976V26.9259H97.1636ZM123.997 40.2738V32.4492C123.997 32.0707 123.977 31.59 123.936 31.007C123.895 30.4137 123.766 29.8205 123.551 29.2273C123.336 28.634 122.982 28.1379 122.49 27.739C122.008 27.3401 121.321 27.1407 120.429 27.1407C120.07 27.1407 119.686 27.197 119.275 27.3095C118.865 27.422 118.481 27.6419 118.122 27.9692C117.763 28.2863 117.466 28.7567 117.23 29.3807C117.004 30.0046 116.891 30.8331 116.891 31.8662L114.492 30.7308C114.492 29.4216 114.759 28.1942 115.292 27.0486C115.825 25.903 116.625 24.9774 117.691 24.2716C118.768 23.5659 120.121 23.213 121.752 23.213C123.054 23.213 124.115 23.4329 124.935 23.8727C125.756 24.3126 126.391 24.87 126.842 25.5451C127.304 26.2201 127.632 26.9259 127.827 27.6623C128.022 28.3885 128.14 29.0534 128.181 29.6568C128.222 30.2603 128.242 30.7001 128.242 30.9763V40.2738H123.997ZM112.647 40.2738V18.1807H116.369V29.5341H116.891V40.2738H112.647ZM138.724 40.7341C136.632 40.7341 134.94 40.2635 133.648 39.3226C132.366 38.3714 131.587 37.0315 131.31 35.3029L135.586 34.6585C135.76 35.4359 136.145 36.0444 136.74 36.4842C137.344 36.9241 138.108 37.144 139.031 37.144C139.79 37.144 140.374 37.0008 140.785 36.7144C141.194 36.4178 141.4 36.0086 141.4 35.487C141.4 35.1597 141.318 34.8989 141.154 34.7045C140.99 34.5 140.62 34.3005 140.046 34.1062C139.482 33.9118 138.601 33.6561 137.401 33.339C136.047 32.9913 134.965 32.6026 134.156 32.173C133.346 31.7434 132.761 31.232 132.402 30.6388C132.043 30.0353 131.864 29.3091 131.864 28.4601C131.864 27.3964 132.136 26.4759 132.679 25.6985C133.223 24.9109 133.987 24.3074 134.971 23.8881C135.965 23.4585 137.134 23.2437 138.478 23.2437C139.779 23.2437 140.933 23.4432 141.938 23.8421C142.943 24.241 143.753 24.8086 144.368 25.5451C144.993 26.2815 145.378 27.1509 145.522 28.1533L141.246 28.9204C141.174 28.3067 140.908 27.8209 140.446 27.4629C139.985 27.1049 139.359 26.8952 138.57 26.8338C137.801 26.7827 137.18 26.885 136.709 27.1407C136.247 27.3964 136.017 27.7646 136.017 28.2453C136.017 28.5317 136.114 28.7721 136.309 28.9664C136.514 29.1608 136.929 29.3602 137.555 29.5648C138.19 29.7693 139.154 30.0353 140.446 30.3626C141.707 30.6899 142.717 31.0735 143.476 31.5133C144.245 31.9429 144.804 32.4645 145.153 33.0782C145.501 33.6817 145.675 34.413 145.675 35.2722C145.675 36.9701 145.06 38.3049 143.83 39.2766C142.599 40.2481 140.897 40.7341 138.724 40.7341ZM156.776 40.7341C155.074 40.7341 153.572 40.3709 152.27 39.6448C150.978 38.9084 149.963 37.9009 149.224 36.6223C148.496 35.3336 148.132 33.8607 148.132 32.2037C148.132 30.3933 148.491 28.8181 149.209 27.4782C149.927 26.1383 150.916 25.1001 152.177 24.3637C153.439 23.617 154.889 23.2437 156.53 23.2437C158.273 23.2437 159.755 23.6528 160.975 24.4711C162.195 25.2893 163.097 26.44 163.682 27.9232C164.266 29.4063 164.471 31.1502 164.297 33.1549H160.16V31.6207C160.16 29.933 159.888 28.721 159.345 27.9845C158.811 27.2378 157.935 26.8645 156.715 26.8645C155.289 26.8645 154.238 27.2992 153.562 28.1686C152.895 29.0278 152.562 30.3012 152.562 31.9889C152.562 33.5334 152.895 34.7301 153.562 35.579C154.238 36.4178 155.228 36.8371 156.53 36.8371C157.35 36.8371 158.053 36.6581 158.637 36.3001C159.222 35.9422 159.668 35.4256 159.975 34.7505L164.159 35.9473C163.533 37.4611 162.544 38.6372 161.19 39.476C159.847 40.3149 158.376 40.7341 156.776 40.7341ZM151.27 33.1549V30.0558H162.282V33.1549H151.27ZM177.736 40.2738C176.588 40.4886 175.46 40.5807 174.353 40.55C173.255 40.5297 172.271 40.3402 171.4 39.9823C170.538 39.6141 169.882 39.0261 169.431 38.2179C169.021 37.4611 168.805 36.6939 168.785 35.9166C168.764 35.129 168.754 34.2391 168.754 33.247V19.1012H172.938V33.0015C172.938 33.6459 172.943 34.2289 172.953 34.7505C172.973 35.262 173.081 35.6711 173.276 35.9779C173.645 36.561 174.235 36.878 175.045 36.9292C175.855 36.9803 176.752 36.9394 177.736 36.8064V40.2738ZM165.924 26.9259V23.704H177.736V26.9259H165.924ZM189.548 40.2738C188.4 40.4886 187.272 40.5807 186.165 40.55C185.067 40.5297 184.083 40.3402 183.212 39.9823C182.35 39.6141 181.694 39.0261 181.243 38.2179C180.833 37.4611 180.617 36.6939 180.597 35.9166C180.576 35.129 180.566 34.2391 180.566 33.247V19.1012H184.75V33.0015C184.75 33.6459 184.755 34.2289 184.765 34.7505C184.785 35.262 184.893 35.6711 185.088 35.9779C185.457 36.561 186.047 36.878 186.857 36.9292C187.667 36.9803 188.564 36.9394 189.548 36.8064V40.2738ZM177.736 26.9259V23.704H189.548V26.9259H177.736ZM200.964 40.7341C199.262 40.7341 197.76 40.3709 196.458 39.6448C195.166 38.9084 194.151 37.9009 193.413 36.6223C192.684 35.3336 192.321 33.8607 192.321 32.2037C192.321 30.3933 192.679 28.8181 193.397 27.4782C194.115 26.1383 195.104 25.1001 196.366 24.3637C197.627 23.617 199.077 23.2437 200.718 23.2437C202.461 23.2437 203.943 23.6528 205.163 24.4711C206.383 25.2893 207.285 26.44 207.87 27.9232C208.454 29.4063 208.659 31.1502 208.485 33.1549H204.348V31.6207C204.348 29.933 204.076 28.721 203.533 27.9845C202.999 27.2378 202.123 26.8645 200.903 26.8645C199.477 26.8645 198.426 27.2992 197.75 28.1686C197.083 29.0278 196.75 30.3012 196.75 31.9889C196.75 33.5334 197.083 34.7301 197.75 35.579C198.426 36.4178 199.416 36.8371 200.718 36.8371C201.538 36.8371 202.241 36.6581 202.825 36.3001C203.41 35.9422 203.856 35.4256 204.163 34.7505L208.347 35.9473C207.721 37.4611 206.732 38.6372 205.378 39.476C204.035 40.3149 202.564 40.7341 200.964 40.7341ZM195.458 33.1549V30.0558H206.47V33.1549H195.458ZM211.958 40.2738V23.704H215.649V27.7544L215.249 27.2327C215.464 26.66 215.752 26.1383 216.11 25.6678C216.469 25.1973 216.91 24.8086 217.433 24.5018C217.833 24.2563 218.269 24.0671 218.74 23.9341C219.212 23.7909 219.699 23.704 220.201 23.6733C220.704 23.6324 221.206 23.6426 221.709 23.704V27.601C221.247 27.4578 220.709 27.4117 220.094 27.4629C219.489 27.5038 218.94 27.6419 218.448 27.8771C217.956 28.1022 217.541 28.4039 217.202 28.7823C216.864 29.1505 216.608 29.5904 216.433 30.1018C216.259 30.603 216.172 31.1707 216.172 31.8048V40.2738H211.958ZM229.255 40.2738L236.022 18.1807H242.266L249.034 40.2738H244.727L238.698 20.7889H239.498L233.561 40.2738H229.255ZM233.315 35.6711V31.7741H245.004V35.6711H233.315ZM252.098 40.2738V18.1807H256.281V40.2738H252.098Z" fill="#FF8D00"/>
<path d="M29.9914 44.4927C39.7598 44.4927 47.6786 36.5933 47.6786 26.8489C47.6786 17.1045 39.7598 9.20508 29.9914 9.20508C20.223 9.20508 12.3042 17.1045 12.3042 26.8489C12.3042 36.5933 20.223 44.4927 29.9914 44.4927Z" stroke="#FF8D00" stroke-width="4"/>
<path d="M38.066 27.6162H21.9167V31.0682H38.066V27.6162Z" fill="#FF8D00"/>
<path d="M38.066 33.3701H21.9167V36.8221H38.066V33.3701Z" fill="#FF8D00"/>
<path d="M23.0703 23.973L30.1836 17.2607L37.1047 23.973" stroke="#FF8D00" stroke-width="4"/>
</svg>
